# xmcd
#
# Track frame offsets:
#	150
#	12271
#	25574
#	38625
#	51917
#	61697
#	73893
#	87683
#	99718
#	112310
#	121733
#	131972
#	145153
#	158613
#	171248
#	184713
#	195776
#	205657
#	221759
#	232297
#	242736
#	259167
#	271478
#	284516
#	297368
#	311181
#	320111
#
# Disc length: 4386 seconds
#
# Revision: 1
# Processed by: cddbd v1.5.2PL0 Copyright (c) Steve Scherf et al.
# Submitted via: audiograbber 1.83.01
#
DISCID=a511201b
DTITLE=Various Artist - Absolutely Bluegrass - CD1
DYEAR=2011
DGENRE=Bluegrass
TTITLE0=Flatt And Scruggs - Don't Get Above Your Raising
TTITLE1=The Stanley Brothers - Man Of Constant Sorrow
TTITLE2=Roy Acuff - Great Speckled Bird
TTITLE3=Rouse Brothers - Orange Blossom Special
TTITLE4=Bill Monroe And His Bluegrass Boys - Y'all Come
TTITLE5=Blue Sky Boys - Are You From Dixie?
TTITLE6=Fiddlin' John Carson - Cotton Eyed Joe
TTITLE7=Flatt And Scruggs - Foggy Mountain Breakdown
TTITLE8=Delmore Brothers - Going Back To The Blue Ridge Mountains
TTITLE9=Jesse And Jim - Air Mail Special
TTITLE10=Bill Monroe And His Bluegrass Boys - Blue Grass Breakdown
TTITLE11=The Standley Brothers - Little Glass Of Wine
TTITLE12=Flatt And Scruggs - Earl's Breakdown
TTITLE13=Coon Creek Girls - Pretty Polly
TTITLE14=Bailey Brothers - Heart's Hall Of Fame
TTITLE15=Monroe Brothers - Will The Circle Be Unbroken?
TTITLE16=Joe Maphis - Twin Banjo Special
TTITLE17=Blue Sky Boys - Story Of The Knoxville Girl
TTITLE18=Jimmy Martin And The Sunny Mountain Boys - Blue Eyed Darling
TTITLE19=Don Reno And The Tennessee Cut Ups - I'm Gone Long Gone
TTITLE20=Ernest V Stoneman And His Dixie Mountaineers  - Sally Goodin
TTITLE21=Bill Monroe And His Bluegrass Boys - Uncle Pen
TTITLE22=The Carter Family - Cannon Ball Blues
TTITLE23=Charlie Poole And The North Carolina Ramblers - Don't Let Your Deal Go
TTITLE23=Down
TTITLE24=Uncle Dave Macon - When The Train Comes Along
TTITLE25=Flatt And Scruggs - Foggy Mountain Special
TTITLE26=Jimmy Martin And The Sunny Mountain Boys - Save It, Save It
EXTD=
EXTT0=
EXTT1=
EXTT2=
EXTT3=
EXTT4=
EXTT5=
EXTT6=
EXTT7=
EXTT8=
EXTT9=
EXTT10=
EXTT11=
EXTT12=
EXTT13=
EXTT14=
EXTT15=
EXTT16=
EXTT17=
EXTT18=
EXTT19=
EXTT20=
EXTT21=
EXTT22=
EXTT23=
EXTT24=
EXTT25=
EXTT26=
PLAYORDER=
